<svg width="260" height="94" viewBox="0 0 260 94" fill="none" xmlns="http://www.w3.org/2000/svg">
<path d="M69.854 39.556V55H66.092V45.738L62.638 55H59.602L56.126 45.716V55H52.364V39.556H56.808L61.142 50.248L65.432 39.556H69.854ZM85.0993 42.724L77.3993 60.83H73.3513L76.1673 54.582L71.1733 42.724H75.3753L78.2133 50.402L81.0293 42.724H85.0993ZM101.176 39.556V42.57H94.8838V45.826H99.5918V48.752H94.8838V55H91.1218V39.556H101.176ZM105.045 41.448C104.385 41.448 103.842 41.2573 103.417 40.876C103.006 40.48 102.801 39.996 102.801 39.424C102.801 38.8373 103.006 38.3533 103.417 37.972C103.842 37.576 104.385 37.378 105.045 37.378C105.69 37.378 106.218 37.576 106.629 37.972C107.054 38.3533 107.267 38.8373 107.267 39.424C107.267 39.996 107.054 40.48 106.629 40.876C106.218 41.2573 105.69 41.448 105.045 41.448ZM106.915 42.724V55H103.153V42.724H106.915ZM117.121 42.592C118.559 42.592 119.703 43.0613 120.553 44C121.419 44.924 121.851 46.2 121.851 47.828V55H118.111V48.334C118.111 47.5127 117.899 46.8747 117.473 46.42C117.048 45.9653 116.476 45.738 115.757 45.738C115.039 45.738 114.467 45.9653 114.041 46.42C113.616 46.8747 113.403 47.5127 113.403 48.334V55H109.641V42.724H113.403V44.352C113.785 43.8093 114.298 43.384 114.943 43.076C115.589 42.7533 116.315 42.592 117.121 42.592ZM123.718 48.84C123.718 47.5787 123.952 46.4713 124.422 45.518C124.906 44.5647 125.558 43.8313 126.38 43.318C127.201 42.8047 128.118 42.548 129.13 42.548C129.995 42.548 130.75 42.724 131.396 43.076C132.056 43.428 132.562 43.89 132.914 44.462V42.724H136.676V55H132.914V53.262C132.547 53.834 132.034 54.296 131.374 54.648C130.728 55 129.973 55.176 129.108 55.176C128.11 55.176 127.201 54.9193 126.38 54.406C125.558 53.878 124.906 53.1373 124.422 52.184C123.952 51.216 123.718 50.1013 123.718 48.84ZM132.914 48.862C132.914 47.9233 132.65 47.1827 132.122 46.64C131.608 46.0973 130.978 45.826 130.23 45.826C129.482 45.826 128.844 46.0973 128.316 46.64C127.802 47.168 127.546 47.9013 127.546 48.84C127.546 49.7787 127.802 50.5267 128.316 51.084C128.844 51.6267 129.482 51.898 130.23 51.898C130.978 51.898 131.608 51.6267 132.122 51.084C132.65 50.5413 132.914 49.8007 132.914 48.862ZM146.877 42.592C148.315 42.592 149.459 43.0613 150.309 44C151.175 44.924 151.607 46.2 151.607 47.828V55H147.867V48.334C147.867 47.5127 147.655 46.8747 147.229 46.42C146.804 45.9653 146.232 45.738 145.513 45.738C144.795 45.738 144.223 45.9653 143.797 46.42C143.372 46.8747 143.159 47.5127 143.159 48.334V55H139.397V42.724H143.159V44.352C143.541 43.8093 144.054 43.384 144.699 43.076C145.345 42.7533 146.071 42.592 146.877 42.592ZM153.473 48.862C153.473 47.586 153.73 46.4713 154.243 45.518C154.771 44.5647 155.497 43.8313 156.421 43.318C157.36 42.8047 158.431 42.548 159.633 42.548C161.173 42.548 162.457 42.9513 163.483 43.758C164.525 44.5647 165.207 45.7013 165.529 47.168H161.525C161.188 46.2293 160.535 45.76 159.567 45.76C158.878 45.76 158.328 46.0313 157.917 46.574C157.507 47.102 157.301 47.8647 157.301 48.862C157.301 49.8593 157.507 50.6293 157.917 51.172C158.328 51.7 158.878 51.964 159.567 51.964C160.535 51.964 161.188 51.4947 161.525 50.556H165.529C165.207 51.9933 164.525 53.1227 163.483 53.944C162.442 54.7653 161.159 55.176 159.633 55.176C158.431 55.176 157.36 54.9193 156.421 54.406C155.497 53.8927 154.771 53.1593 154.243 52.206C153.73 51.2527 153.473 50.138 153.473 48.862ZM179.114 48.664C179.114 49.016 179.092 49.3827 179.048 49.764H170.534C170.592 50.5267 170.834 51.1133 171.26 51.524C171.7 51.92 172.235 52.118 172.866 52.118C173.804 52.118 174.457 51.722 174.824 50.93H178.828C178.622 51.7367 178.248 52.4627 177.706 53.108C177.178 53.7533 176.51 54.2593 175.704 54.626C174.897 54.9927 173.995 55.176 172.998 55.176C171.795 55.176 170.724 54.9193 169.786 54.406C168.847 53.8927 168.114 53.1593 167.586 52.206C167.058 51.2527 166.794 50.138 166.794 48.862C166.794 47.586 167.05 46.4713 167.564 45.518C168.092 44.5647 168.825 43.8313 169.764 43.318C170.702 42.8047 171.78 42.548 172.998 42.548C174.186 42.548 175.242 42.7973 176.166 43.296C177.09 43.7947 177.808 44.506 178.322 45.43C178.85 46.354 179.114 47.432 179.114 48.664ZM175.264 47.674C175.264 47.0287 175.044 46.5153 174.604 46.134C174.164 45.7527 173.614 45.562 172.954 45.562C172.323 45.562 171.788 45.7453 171.348 46.112C170.922 46.4787 170.658 46.9993 170.556 47.674H175.264ZM186.092 55.176C185.022 55.176 184.068 54.9927 183.232 54.626C182.396 54.2593 181.736 53.7607 181.252 53.13C180.768 52.4847 180.497 51.766 180.438 50.974H184.156C184.2 51.3993 184.398 51.744 184.75 52.008C185.102 52.272 185.535 52.404 186.048 52.404C186.518 52.404 186.877 52.316 187.126 52.14C187.39 51.9493 187.522 51.7073 187.522 51.414C187.522 51.062 187.339 50.8053 186.972 50.644C186.606 50.468 186.012 50.2773 185.19 50.072C184.31 49.8667 183.577 49.654 182.99 49.434C182.404 49.1993 181.898 48.84 181.472 48.356C181.047 47.8573 180.834 47.19 180.834 46.354C180.834 45.65 181.025 45.012 181.406 44.44C181.802 43.8533 182.374 43.3913 183.122 43.054C183.885 42.7167 184.787 42.548 185.828 42.548C187.368 42.548 188.578 42.9293 189.458 43.692C190.353 44.4547 190.866 45.4667 190.998 46.728H187.522C187.464 46.3027 187.273 45.9653 186.95 45.716C186.642 45.4667 186.232 45.342 185.718 45.342C185.278 45.342 184.941 45.43 184.706 45.606C184.472 45.7673 184.354 45.9947 184.354 46.288C184.354 46.64 184.538 46.904 184.904 47.08C185.286 47.256 185.872 47.432 186.664 47.608C187.574 47.8427 188.314 48.0773 188.886 48.312C189.458 48.532 189.957 48.8987 190.382 49.412C190.822 49.9107 191.05 50.5853 191.064 51.436C191.064 52.1547 190.859 52.8 190.448 53.372C190.052 53.9293 189.473 54.3693 188.71 54.692C187.962 55.0147 187.09 55.176 186.092 55.176Z" fill="white"/>
<path d="M34.1422 32.8578C30.3647 29.0803 25.3422 27 20 27C14.6578 27 9.63531 29.0803 5.85781 32.8578C2.08031 36.6353 0 41.6578 0 47C0 52.3422 2.08039 57.3646 5.85781 61.1422C9.63523 64.9198 14.6578 67 20 67C25.3422 67 30.3647 64.9197 34.1422 61.1422C37.9197 57.3647 40 52.3422 40 47C40 41.6578 37.9196 36.6354 34.1422 32.8578Z" fill="#33CC95"/>
<g clip-path="url(#clip0)">
<path d="M20.5714 35V60.1429" stroke="white" stroke-width="2" stroke-linecap="round" stroke-linejoin="round"/>
<path d="M26.2857 39.5714H17.7143C16.6534 39.5714 15.636 39.9929 14.8859 40.743C14.1357 41.4931 13.7143 42.5106 13.7143 43.5714C13.7143 44.6323 14.1357 45.6497 14.8859 46.3999C15.636 47.15 16.6534 47.5714 17.7143 47.5714H23.4286C24.4894 47.5714 25.5069 47.9929 26.257 48.743C27.0072 49.4931 27.4286 50.5106 27.4286 51.5714C27.4286 52.6323 27.0072 53.6497 26.257 54.3999C25.5069 55.15 24.4894 55.5714 23.4286 55.5714H13.7143" stroke="white" stroke-width="2" stroke-linecap="round" stroke-linejoin="round"/>
</g>
<defs>
<clipPath id="clip0">
<rect width="27.4286" height="27.4286" fill="white" transform="translate(6.85715 33.8571)"/>
</clipPath>
</defs>
</svg>
